<?xml version="1.0" encoding="utf-8"?>
<!-- Generator: Adobe Illustrator 22.0.0, SVG Export Plug-In . SVG Version: 6.00 Build 0)  -->
<svg version="1.1" id="WebTelescope" xmlns="http://www.w3.org/2000/svg" xmlns:xlink="http://www.w3.org/1999/xlink" x="0px"
	 y="0px" viewBox="0 0 369 208" style="enable-background:new 0 0 369 208;" xml:space="preserve">
<style type="text/css">
	.st0{fill:#C1C1C1;}
	.st1{opacity:0.2;fill:url(#SVGID_1_);enable-background:new    ;}
	.st2{fill:#EAEAE9;}
	.st3{opacity:0.42;fill:#C1C1C1;enable-background:new    ;}
	.st4{fill:#F4F4F4;}
	.st5{opacity:0.15;fill:#C1C1C1;enable-background:new    ;}
</style>
<circle class="st0" cx="185.1" cy="88.7" r="3.7"/>
<linearGradient id="SVGID_1_" gradientUnits="userSpaceOnUse" x1="69.1713" y1="-563.45" x2="369.1713" y2="-563.45" gradientTransform="matrix(1 0 0 -1 0 -372)">
	<stop  offset="0.16" style="stop-color:#FFFFFF"/>
	<stop  offset="0.23" style="stop-color:#F6F6F6"/>
	<stop  offset="0.35" style="stop-color:#DDDDDD"/>
	<stop  offset="0.5" style="stop-color:#B4B4B4"/>
	<stop  offset="0.67" style="stop-color:#7B7B7B"/>
	<stop  offset="0.87" style="stop-color:#333333"/>
	<stop  offset="1" style="stop-color:#000000"/>
</linearGradient>
<path class="st1" d="M96.1,180.2l89.9,22.5l1.7-1.7l-38.9-18.1h72.4c1.4-0.8,1.6-2.7,0-2.7H96.1z"/>
<path class="st2" d="M219.6,181.8l-27.5-89.1l3.1-1l27.5,89.1c0.3,0.9-0.2,1.8-1.1,2C220.7,183.1,219.8,182.7,219.6,181.8z"/>
<path class="st3" d="M193.3,92.3l-1.2,0.4l27.5,89.1c0.1,0.3,0.3,0.6,0.5,0.8c0.5-0.4,0.7-1.1,0.5-1.8L193.3,92.3z"/>
<path class="st0" d="M219.6,181.9l-0.1-0.5l3.1-0.9l0.1,0.5c0.3,0.9-0.2,1.8-1.1,2C220.7,183.2,219.8,182.7,219.6,181.9z"/>
<path class="st2" d="M191.8,94.8l4.9-1.5l14.2,45.9c0.2,0.6-0.2,1.3-0.8,1.5l-2.6,0.8c-0.6,0.2-1.3-0.2-1.5-0.8
	C206,140.7,191.8,94.8,191.8,94.8z"/>
<path class="st3" d="M191.8,94.8l14.2,46c0.2,0.6,0.9,1,1.5,0.8l1.5-0.5L194.4,94L191.8,94.8z"/>
<path class="st2" d="M148,180l27-89.5l3.1,0.9l-27,89.5c-0.3,0.9-1.2,1.4-2,1.1C148.2,181.8,147.7,180.9,148,180z"/>
<path class="st3" d="M177,92.3l1.2,0.4l-27.5,89.1c-0.1,0.3-0.3,0.6-0.5,0.8c-0.5-0.4-0.7-1.1-0.5-1.8L177,92.3z"/>
<path class="st0" d="M147.6,180.8l0.2-0.5l3.1,1l-0.2,0.5c-0.3,0.9-1.2,1.3-2,1.1C147.8,182.6,147.3,181.7,147.6,180.8z"/>
<path class="st2" d="M162.9,141.5l-2.6-0.8c-0.6-0.2-1-0.9-0.8-1.5l14.2-45.9l4.9,1.5l-14.2,45.9
	C164.2,141.4,163.5,141.7,162.9,141.5z"/>
<path class="st3" d="M178.5,94.8l-14.2,46c-0.2,0.6-0.9,1-1.5,0.8l-1.5-0.5L175.9,94L178.5,94.8z"/>
<path class="st2" d="M184.3,96.6h3.3V201c0,0.9-0.7,1.7-1.7,1.7c-0.9,0-1.7-0.7-1.7-1.7L184.3,96.6
	C184.2,96.6,184.3,96.6,184.3,96.6z"/>
<path class="st3" d="M184.3,127.1h3.3v19.7c0,0.4-0.3,0.7-0.7,0.7H185c-0.4,0-0.7-0.3-0.7-0.7C184.3,146.8,184.3,127.1,184.3,127.1z
	"/>
<path class="st0" d="M184.2,199.3h3.3v1.7c0,0.9-0.7,1.7-1.7,1.7c-0.9,0-1.7-0.7-1.7-1.7L184.2,199.3
	C184.1,199.3,184.2,199.3,184.2,199.3z"/>
<path class="st2" d="M182.9,96.6h6.1V143c0,1.6-1.3,2.8-2.8,2.8h-0.4c-1.6,0-2.8-1.3-2.8-2.8C183,143,182.9,96.6,182.9,96.6z"/>
<path class="st3" d="M182.3,77.7h5.7v9.8h-5.7V77.7z"/>
<path class="st4" d="M123.3,89.8l27.6-10.2c0.5-0.2,1.1,0.1,1.2,0.6l2.3,6.2c0.2,0.5-0.1,1.1-0.6,1.2l-27.5,10.2
	c-0.5,0.2-1.1-0.1-1.2-0.6l-2.4-6.2C122.5,90.5,122.8,90,123.3,89.8z"/>
<path class="st3" d="M154.7,87.2L144.5,91l0.7-9.3l6.6-2.5L154.7,87.2z"/>
<path class="st0" d="M123.3,88.7l1.2-0.5c0.7-0.2,1.4,0.2,1.7,0.8l2.7,7.4c0.2,0.7-0.1,1.4-0.8,1.7l-1.2,0.5
	c-0.7,0.2-1.4-0.1-1.7-0.8l-2.7-7.4C122.2,89.7,122.6,89,123.3,88.7z"/>
<path class="st2" d="M150.4,77.6l28.1-10.4l4.3,11.7l-28,10.4c-0.7,0.2-1.4-0.1-1.7-0.8l-3.5-9.3C149.4,78.6,149.8,77.8,150.4,77.6z
	"/>
<path class="st3" d="M181.9,79.3l-10.5,3.9L171,70l6.6-2.4L181.9,79.3z"/>
<path class="st5" d="M151.4,84.1l1.7,4.5c0.2,0.7,1,1,1.7,0.8L183,79l-2.1-5.7C180.9,73.3,151.4,84.1,151.4,84.1z"/>
<path class="st2" d="M174.1,90.4h22.3c0.9,0,1.6,0.7,1.6,1.5v2.3h-25.5V92C172.5,91.1,173.2,90.4,174.1,90.4z"/>
<path class="st3" d="M172.5,93.4H198v0.8h-25.5V93.4z"/>
<path class="st0" d="M169.5,94.2h31.6c0.9,0,1.6,0.7,1.6,1.6v1.5c0,0.9-0.7,1.6-1.6,1.6h-31.6c-0.9,0-1.6-0.7-1.6-1.6v-1.5
	C167.8,95,168.6,94.2,169.5,94.2z"/>
<path class="st5" d="M127.4,92.4l24-8.3l1.5,3.8l-24,8.6L127.4,92.4z"/>
<path class="st4" d="M177.9,64.1l35-13l6.2,16.6c0.2,0.5-0.1,1.1-0.6,1.3l-34.1,12.6c-1.1,0.4-2.3-0.1-2.6-1.2l-5.1-13.7
	C176.3,65.7,176.8,64.5,177.9,64.1z"/>
<path class="st3" d="M221.1,68.1l-18.4,6.8l1.9-20.6l10-3.7L221.1,68.1z"/>
<path class="st5" d="M216.1,59.8l-36.9,13.7l2.6,7c0.4,1.1,1.6,1.6,2.6,1.2l34.1-12.6c0.5-0.2,0.8-0.7,0.6-1.2L216.1,59.8z"/>
<path class="st2" d="M237.4,41.2l7.1,19.1c4.4-4.3,4.5-11.3,0.2-15.8C242.8,42.6,240.2,41.4,237.4,41.2z"/>
<path class="st0" d="M235.3,40.4l3.4-1.2c0.5-0.2,1.1,0.1,1.3,0.6l7.4,20.1c0.2,0.5-0.1,1.1-0.6,1.3l-3.4,1.2L235.3,40.4L235.3,40.4
	z"/>
<path class="st2" d="M212.6,48.6l23.2-8.6l8.2,22l-23.2,8.6c-1.2,0.5-2.6-0.2-3-1.4l-6.5-17.5C210.8,50.4,211.4,49.1,212.6,48.6z"/>
<path class="st5" d="M214,60.6l3.3,8.9c0.5,1.2,1.8,1.8,3,1.4l23.1-8.5l-4.1-11.2L214,60.6z"/>
<path class="st0" d="M267.1,2.9l2.9,1l-2.9,1l-1,2.9l-1-2.9l-2.8-1l2.8-1l1-2.9L267.1,2.9z M274.9,98l2.9,1l-2.9,1l-1,2.9l-1-2.9
	l-2.9-1l2.9-1l1-2.9L274.9,98z M336.4,3.4l1.5,0.5l-1.5,0.5l-0.5,1.4l-0.5-1.4L334,3.9l1.4-0.5l0.5-1.5L336.4,3.4z M297,35.4
	l1.5,0.5l-1.5,0.5l-0.5,1.4l-0.5-1.4l-1.4-0.5l1.4-0.5l0.5-1.5L297,35.4z M164.4,28.2l1.4,0.5l-1.4,0.5l-0.5,1.4l-0.5-1.4l-1.4-0.5
	l1.4-0.5l0.5-1.4L164.4,28.2z M87.8,15.1l1.5,0.5l-1.5,0.5l-0.5,1.5l-0.5-1.5l-1.4-0.5l1.4-0.5l0.5-1.4L87.8,15.1z"/>
</svg>
